<?xml version="1.0" encoding="us-ascii" standalone="no"?><svg xmlns="http://www.w3.org/2000/svg" xmlns:xlink="http://www.w3.org/1999/xlink" contentStyleType="text/css" height="380px" preserveAspectRatio="none" style="width:609px;height:380px;background:#FFFFFF;" version="1.1" viewBox="0 0 609 380" width="609px" zoomAndPan="magnify"><defs/><g><!--class User--><g id="elem_User"><rect codeLine="1" fill="#F1F1F1" height="100.8281" id="User" rx="2.5" ry="2.5" style="stroke:#181818;stroke-width:0.5;" width="203" x="62" y="15.5"/><ellipse cx="144.75" cy="31.5" fill="#ADD1B2" rx="11" ry="11" style="stroke:#181818;stroke-width:1.0;"/><path d="M143.6094,32.2969 L143.6094,34.7969 L147.9375,34.7969 L147.9375,33.875 Q147.9375,33.2656 148.1719,33 Q148.4219,32.7344 148.7969,32.7344 Q149.1719,32.7344 149.4063,33 Q149.6406,33.2656 149.6406,33.875 L149.6406,36.5 L141.6406,36.5 Q141.0156,36.5 140.75,36.2656 Q140.5,36.0313 140.5,35.6406 Q140.5,35.2656 140.7656,35.0313 Q141.0313,34.7969 141.6406,34.7969 L141.9063,34.7969 L141.9063,28.1406 L141.6406,28.1406 Q141.0156,28.1406 140.75,27.9063 Q140.5,27.6719 140.5,27.2813 Q140.5,26.9063 140.75,26.6719 Q141.0156,26.4375 141.6406,26.4375 L149.2656,26.4375 L149.2656,29.0313 Q149.2656,29.6406 149.0313,29.9063 Q148.8125,30.1563 148.4219,30.1563 Q148.0469,30.1563 147.8125,29.9063 Q147.5781,29.6406 147.5781,29.0313 L147.5781,28.1406 L143.6094,28.1406 L143.6094,30.5938 L145.0938,30.5938 Q145.0938,29.9375 145.2188,29.75 Q145.4844,29.3438 145.9531,29.3438 Q146.3281,29.3438 146.5625,29.6094 Q146.7969,29.8594 146.7969,30.4688 L146.7969,32.4375 Q146.7969,32.9844 146.6719,33.1719 Q146.4063,33.5625 145.9531,33.5625 Q145.4844,33.5625 145.2188,33.1563 Q145.0938,32.9688 145.0938,32.2969 L143.6094,32.2969 Z " fill="#000000"/><text fill="#000000" font-family="sans-serif" font-size="14" lengthAdjust="spacing" textLength="29" x="165.25" y="37.2285">User</text><line style="stroke:#181818;stroke-width:0.5;" x1="63" x2="264" y1="47.5" y2="47.5"/><ellipse cx="73" cy="61.8047" fill="#000000" rx="3" ry="3" style="stroke:#000000;stroke-width:1.0;"/><text fill="#000000" font-family="sans-serif" font-size="14" lengthAdjust="spacing" textLength="120" x="82" y="66.0332">user_id : UUID [PK]</text><ellipse cx="73" cy="79.4141" fill="#000000" rx="3" ry="3" style="stroke:#000000;stroke-width:1.0;"/><text fill="#000000" font-family="sans-serif" font-size="14" lengthAdjust="spacing" textLength="141" x="82" y="83.6426">username : VARCHAR</text><ellipse cx="73" cy="97.0234" fill="#000000" rx="3" ry="3" style="stroke:#000000;stroke-width:1.0;"/><text fill="#000000" font-family="sans-serif" font-size="14" lengthAdjust="spacing" textLength="177" x="82" y="101.252">password_hash : VARCHAR</text><line style="stroke:#181818;stroke-width:0.5;" x1="63" x2="264" y1="108.3281" y2="108.3281"/></g><!--class Receipt--><g id="elem_Receipt"><rect codeLine="7" fill="#F1F1F1" height="118.4375" id="Receipt" rx="2.5" ry="2.5" style="stroke:#181818;stroke-width:0.5;" width="247" x="300" y="7"/><ellipse cx="395.25" cy="23" fill="#ADD1B2" rx="11" ry="11" style="stroke:#181818;stroke-width:1.0;"/><path d="M394.1094,23.7969 L394.1094,26.2969 L398.4375,26.2969 L398.4375,25.375 Q398.4375,24.7656 398.6719,24.5 Q398.9219,24.2344 399.2969,24.2344 Q399.6719,24.2344 399.9063,24.5 Q400.1406,24.7656 400.1406,25.375 L400.1406,28 L392.1406,28 Q391.5156,28 391.25,27.7656 Q391,27.5313 391,27.1406 Q391,26.7656 391.2656,26.5313 Q391.5313,26.2969 392.1406,26.2969 L392.4063,26.2969 L392.4063,19.6406 L392.1406,19.6406 Q391.5156,19.6406 391.25,19.4063 Q391,19.1719 391,18.7813 Q391,18.4063 391.25,18.1719 Q391.5156,17.9375 392.1406,17.9375 L399.7656,17.9375 L399.7656,20.5313 Q399.7656,21.1406 399.5313,21.4063 Q399.3125,21.6563 398.9219,21.6563 Q398.5469,21.6563 398.3125,21.4063 Q398.0781,21.1406 398.0781,20.5313 L398.0781,19.6406 L394.1094,19.6406 L394.1094,22.0938 L395.5938,22.0938 Q395.5938,21.4375 395.7188,21.25 Q395.9844,20.8438 396.4531,20.8438 Q396.8281,20.8438 397.0625,21.1094 Q397.2969,21.3594 397.2969,21.9688 L397.2969,23.9375 Q397.2969,24.4844 397.1719,24.6719 Q396.9063,25.0625 396.4531,25.0625 Q395.9844,25.0625 395.7188,24.6563 Q395.5938,24.4688 395.5938,23.7969 L394.1094,23.7969 Z " fill="#000000"/><text fill="#000000" font-family="sans-serif" font-size="14" lengthAdjust="spacing" textLength="48" x="415.75" y="28.7285">Receipt</text><line style="stroke:#181818;stroke-width:0.5;" x1="301" x2="546" y1="39" y2="39"/><ellipse cx="311" cy="53.3047" fill="#000000" rx="3" ry="3" style="stroke:#000000;stroke-width:1.0;"/><text fill="#000000" font-family="sans-serif" font-size="14" lengthAdjust="spacing" textLength="135" x="320" y="57.5332">receipt_id : UUID [PK]</text><ellipse cx="311" cy="70.9141" fill="#000000" rx="3" ry="3" style="stroke:#000000;stroke-width:1.0;"/><text fill="#000000" font-family="sans-serif" font-size="14" lengthAdjust="spacing" textLength="221" x="320" y="75.1426">user_id : UUID [FK -&gt; User.user_id]</text><ellipse cx="311" cy="88.5234" fill="#000000" rx="3" ry="3" style="stroke:#000000;stroke-width:1.0;"/><text fill="#000000" font-family="sans-serif" font-size="14" lengthAdjust="spacing" textLength="121" x="320" y="92.752">image_path : TEXT</text><ellipse cx="311" cy="106.1328" fill="#000000" rx="3" ry="3" style="stroke:#000000;stroke-width:1.0;"/><text fill="#000000" font-family="sans-serif" font-size="14" lengthAdjust="spacing" textLength="170" x="320" y="110.3613">upload_date : TIMESTAMP</text><line style="stroke:#181818;stroke-width:0.5;" x1="301" x2="546" y1="117.4375" y2="117.4375"/></g><!--class Expense--><g id="elem_Expense"><rect codeLine="14" fill="#F1F1F1" height="188.875" id="Expense" rx="2.5" ry="2.5" style="stroke:#181818;stroke-width:0.5;" width="313" x="7" y="185"/><ellipse cx="132.25" cy="201" fill="#ADD1B2" rx="11" ry="11" style="stroke:#181818;stroke-width:1.0;"/><path d="M131.1094,201.7969 L131.1094,204.2969 L135.4375,204.2969 L135.4375,203.375 Q135.4375,202.7656 135.6719,202.5 Q135.9219,202.2344 136.2969,202.2344 Q136.6719,202.2344 136.9063,202.5 Q137.1406,202.7656 137.1406,203.375 L137.1406,206 L129.1406,206 Q128.5156,206 128.25,205.7656 Q128,205.5313 128,205.1406 Q128,204.7656 128.2656,204.5313 Q128.5313,204.2969 129.1406,204.2969 L129.4063,204.2969 L129.4063,197.6406 L129.1406,197.6406 Q128.5156,197.6406 128.25,197.4063 Q128,197.1719 128,196.7813 Q128,196.4063 128.25,196.1719 Q128.5156,195.9375 129.1406,195.9375 L136.7656,195.9375 L136.7656,198.5313 Q136.7656,199.1406 136.5313,199.4063 Q136.3125,199.6563 135.9219,199.6563 Q135.5469,199.6563 135.3125,199.4063 Q135.0781,199.1406 135.0781,198.5313 L135.0781,197.6406 L131.1094,197.6406 L131.1094,200.0938 L132.5938,200.0938 Q132.5938,199.4375 132.7188,199.25 Q132.9844,198.8438 133.4531,198.8438 Q133.8281,198.8438 134.0625,199.1094 Q134.2969,199.3594 134.2969,199.9688 L134.2969,201.9375 Q134.2969,202.4844 134.1719,202.6719 Q133.9063,203.0625 133.4531,203.0625 Q132.9844,203.0625 132.7188,202.6563 Q132.5938,202.4688 132.5938,201.7969 L131.1094,201.7969 Z " fill="#000000"/><text fill="#000000" font-family="sans-serif" font-size="14" lengthAdjust="spacing" textLength="54" x="152.75" y="206.7285">Expense</text><line style="stroke:#181818;stroke-width:0.5;" x1="8" x2="319" y1="217" y2="217"/><ellipse cx="18" cy="231.3047" fill="#000000" rx="3" ry="3" style="stroke:#000000;stroke-width:1.0;"/><text fill="#000000" font-family="sans-serif" font-size="14" lengthAdjust="spacing" textLength="145" x="27" y="235.5332">expense_id : UUID [PK]</text><ellipse cx="18" cy="248.9141" fill="#000000" rx="3" ry="3" style="stroke:#000000;stroke-width:1.0;"/><text fill="#000000" font-family="sans-serif" font-size="14" lengthAdjust="spacing" textLength="270" x="27" y="253.1426">receipt_id : UUID [FK -&gt; Receipt.receipt_id]</text><ellipse cx="18" cy="266.5234" fill="#000000" rx="3" ry="3" style="stroke:#000000;stroke-width:1.0;"/><text fill="#000000" font-family="sans-serif" font-size="14" lengthAdjust="spacing" textLength="180" x="27" y="270.752">merchant_name : VARCHAR</text><ellipse cx="18" cy="284.1328" fill="#000000" rx="3" ry="3" style="stroke:#000000;stroke-width:1.0;"/><text fill="#000000" font-family="sans-serif" font-size="14" lengthAdjust="spacing" textLength="119" x="27" y="288.3613">amount : DECIMAL</text><ellipse cx="18" cy="301.7422" fill="#000000" rx="3" ry="3" style="stroke:#000000;stroke-width:1.0;"/><text fill="#000000" font-family="sans-serif" font-size="14" lengthAdjust="spacing" textLength="133" x="27" y="305.9707">currency : VARCHAR</text><ellipse cx="18" cy="319.3516" fill="#000000" rx="3" ry="3" style="stroke:#000000;stroke-width:1.0;"/><text fill="#000000" font-family="sans-serif" font-size="14" lengthAdjust="spacing" textLength="190" x="27" y="323.5801">converted_amount : DECIMAL</text><ellipse cx="18" cy="336.9609" fill="#000000" rx="3" ry="3" style="stroke:#000000;stroke-width:1.0;"/><text fill="#000000" font-family="sans-serif" font-size="14" lengthAdjust="spacing" textLength="133" x="27" y="341.1895">category : VARCHAR</text><ellipse cx="18" cy="354.5703" fill="#000000" rx="3" ry="3" style="stroke:#000000;stroke-width:1.0;"/><text fill="#000000" font-family="sans-serif" font-size="14" lengthAdjust="spacing" textLength="287" x="27" y="358.7988">account_id : UUID [FK -&gt; Account.account_id]</text><line style="stroke:#181818;stroke-width:0.5;" x1="8" x2="319" y1="365.875" y2="365.875"/></g><!--class Account--><g id="elem_Account"><rect codeLine="25" fill="#F1F1F1" height="118.4375" id="Account" rx="2.5" ry="2.5" style="stroke:#181818;stroke-width:0.5;" width="247" x="355" y="220.5"/><ellipse cx="448.75" cy="236.5" fill="#ADD1B2" rx="11" ry="11" style="stroke:#181818;stroke-width:1.0;"/><path d="M447.6094,237.2969 L447.6094,239.7969 L451.9375,239.7969 L451.9375,238.875 Q451.9375,238.2656 452.1719,238 Q452.4219,237.7344 452.7969,237.7344 Q453.1719,237.7344 453.4063,238 Q453.6406,238.2656 453.6406,238.875 L453.6406,241.5 L445.6406,241.5 Q445.0156,241.5 444.75,241.2656 Q444.5,241.0313 444.5,240.6406 Q444.5,240.2656 444.7656,240.0313 Q445.0313,239.7969 445.6406,239.7969 L445.9063,239.7969 L445.9063,233.1406 L445.6406,233.1406 Q445.0156,233.1406 444.75,232.9063 Q444.5,232.6719 444.5,232.2813 Q444.5,231.9063 444.75,231.6719 Q445.0156,231.4375 445.6406,231.4375 L453.2656,231.4375 L453.2656,234.0313 Q453.2656,234.6406 453.0313,234.9063 Q452.8125,235.1563 452.4219,235.1563 Q452.0469,235.1563 451.8125,234.9063 Q451.5781,234.6406 451.5781,234.0313 L451.5781,233.1406 L447.6094,233.1406 L447.6094,235.5938 L449.0938,235.5938 Q449.0938,234.9375 449.2188,234.75 Q449.4844,234.3438 449.9531,234.3438 Q450.3281,234.3438 450.5625,234.6094 Q450.7969,234.8594 450.7969,235.4688 L450.7969,237.4375 Q450.7969,237.9844 450.6719,238.1719 Q450.4063,238.5625 449.9531,238.5625 Q449.4844,238.5625 449.2188,238.1563 Q449.0938,237.9688 449.0938,237.2969 L447.6094,237.2969 Z " fill="#000000"/><text fill="#000000" font-family="sans-serif" font-size="14" lengthAdjust="spacing" textLength="51" x="469.25" y="242.2285">Account</text><line style="stroke:#181818;stroke-width:0.5;" x1="356" x2="601" y1="252.5" y2="252.5"/><ellipse cx="366" cy="266.8047" fill="#000000" rx="3" ry="3" style="stroke:#000000;stroke-width:1.0;"/><text fill="#000000" font-family="sans-serif" font-size="14" lengthAdjust="spacing" textLength="142" x="375" y="271.0332">account_id : UUID [PK]</text><ellipse cx="366" cy="284.4141" fill="#000000" rx="3" ry="3" style="stroke:#000000;stroke-width:1.0;"/><text fill="#000000" font-family="sans-serif" font-size="14" lengthAdjust="spacing" textLength="221" x="375" y="288.6426">user_id : UUID [FK -&gt; User.user_id]</text><ellipse cx="366" cy="302.0234" fill="#000000" rx="3" ry="3" style="stroke:#000000;stroke-width:1.0;"/><text fill="#000000" font-family="sans-serif" font-size="14" lengthAdjust="spacing" textLength="171" x="375" y="306.252">account_name : VARCHAR</text><ellipse cx="366" cy="319.6328" fill="#000000" rx="3" ry="3" style="stroke:#000000;stroke-width:1.0;"/><text fill="#000000" font-family="sans-serif" font-size="14" lengthAdjust="spacing" textLength="163" x="375" y="323.8613">account_type : VARCHAR</text><line style="stroke:#181818;stroke-width:0.5;" x1="356" x2="601" y1="330.9375" y2="330.9375"/></g><!--SRC=[bL71IiGm4BttAt8Mx0Tu4C9knR8MbjgA84iOac5Ri4b8KhN8_hjj4zsmneEtp7jlPjwye7IzcqXhqP3FZ90hCivFrWjoGzgst9AN_UxmWqiOS2QUQBsvf_KAQx3sNHd1Eh1Tn9so3Fti6ZdsseNnnbT_ROZnknsvlbsjvO7okdw08p8DRjdN5C-DxzQl2WGJu1QBJLaLZmsjzf6HuaEZj1YCeAzIHX8UlPTmIduM-8O13Uz0EfO820OrIZU3ss9JLlHX1Vbe34e-NMYvacze70gMxfflEofpsGMSB-BVTgadyhFW4CKHs117OiX__-LxH2g4GBb9nzJf2m00]--></g></svg>